<mxfile host="Electron" modified="2024-11-13T14:46:00.815Z" agent="Mozilla/5.0 (Windows NT 10.0; Win64; x64) AppleWebKit/537.36 (KHTML, like Gecko) draw.io/22.1.16 Chrome/120.0.6099.109 Electron/28.1.0 Safari/537.36" etag="0Q24419ClNVIKp9ZcuVp" version="22.1.16" type="device">
  <diagram name="Page-1" id="4cLpT11_sbqyCf1jBhfF">
    <mxGraphModel dx="1185" dy="683" grid="0" gridSize="10" guides="1" tooltips="1" connect="1" arrows="1" fold="1" page="0" pageScale="1" pageWidth="827" pageHeight="1169" background="#2b2b2b" math="0" shadow="0">
      <root>
        <mxCell id="0" />
        <mxCell id="1" parent="0" />
        <mxCell id="7u_rVeXJhvl1PEzHxt-7-8" value="Controller" style="rounded=0;whiteSpace=wrap;html=1;labelBackgroundColor=none;" parent="1" vertex="1">
          <mxGeometry width="120" height="40" as="geometry" />
        </mxCell>
        <mxCell id="zVxibkTT339Y80d_zjdF-18" style="edgeStyle=orthogonalEdgeStyle;rounded=0;orthogonalLoop=1;jettySize=auto;html=1;endArrow=classic;endFill=1;" edge="1" parent="1" source="zVxibkTT339Y80d_zjdF-3" target="7u_rVeXJhvl1PEzHxt-7-8">
          <mxGeometry relative="1" as="geometry" />
        </mxCell>
        <mxCell id="zVxibkTT339Y80d_zjdF-3" value="Service" style="rounded=0;whiteSpace=wrap;html=1;labelBackgroundColor=none;" vertex="1" parent="1">
          <mxGeometry y="120" width="120" height="40" as="geometry" />
        </mxCell>
        <mxCell id="zVxibkTT339Y80d_zjdF-17" style="edgeStyle=orthogonalEdgeStyle;rounded=0;orthogonalLoop=1;jettySize=auto;html=1;endArrow=classic;endFill=1;" edge="1" parent="1" source="zVxibkTT339Y80d_zjdF-4" target="zVxibkTT339Y80d_zjdF-3">
          <mxGeometry relative="1" as="geometry" />
        </mxCell>
        <mxCell id="zVxibkTT339Y80d_zjdF-4" value="Repository" style="rounded=0;whiteSpace=wrap;html=1;labelBackgroundColor=none;" vertex="1" parent="1">
          <mxGeometry y="240" width="120" height="40" as="geometry" />
        </mxCell>
        <mxCell id="zVxibkTT339Y80d_zjdF-16" style="edgeStyle=orthogonalEdgeStyle;rounded=0;orthogonalLoop=1;jettySize=auto;html=1;endArrow=classic;endFill=1;" edge="1" parent="1" source="zVxibkTT339Y80d_zjdF-5" target="zVxibkTT339Y80d_zjdF-4">
          <mxGeometry relative="1" as="geometry" />
        </mxCell>
        <mxCell id="zVxibkTT339Y80d_zjdF-5" value="Model" style="rounded=0;whiteSpace=wrap;html=1;labelBackgroundColor=none;" vertex="1" parent="1">
          <mxGeometry y="360" width="120" height="40" as="geometry" />
        </mxCell>
      </root>
    </mxGraphModel>
  </diagram>
</mxfile>
